<svg width="52" height="52" viewBox="0 0 52 52" fill="none" xmlns="http://www.w3.org/2000/svg">
<path d="M50.6577 25.3875L48.5593 24.0875C48.5417 23.8836 48.5219 23.68 48.4999 23.4766L50.3031 21.7937C50.394 21.7103 50.4619 21.6049 50.5003 21.4877C50.5387 21.3704 50.5462 21.2452 50.5222 21.1242C50.4982 21.0032 50.4434 20.8904 50.3631 20.7966C50.2829 20.7029 50.1799 20.6314 50.064 20.5891L47.7577 19.7266C47.7002 19.5274 47.6403 19.329 47.5781 19.1312L49.0156 17.1328C49.0878 17.0331 49.1333 16.9165 49.1478 16.7942C49.1623 16.6718 49.1452 16.5479 49.0982 16.434C49.0512 16.3202 48.9759 16.2202 48.8794 16.1437C48.7829 16.0672 48.6684 16.0166 48.5468 15.9969L46.114 15.6016C46.0202 15.4172 45.9218 15.2359 45.8218 15.0547L46.8437 12.8125C46.8959 12.7005 46.9184 12.577 46.909 12.4539C46.8995 12.3307 46.8585 12.2121 46.7899 12.1094C46.7213 12.0067 46.6273 11.9234 46.5172 11.8675C46.407 11.8117 46.2843 11.7852 46.1609 11.7906L43.6937 11.8766C43.566 11.7172 43.4357 11.5599 43.3031 11.4047L43.8702 8.99999C43.8991 8.88012 43.8966 8.75486 43.8632 8.63619C43.8297 8.51753 43.7664 8.40943 43.6792 8.32225C43.592 8.23508 43.484 8.17174 43.3653 8.13829C43.2466 8.10485 43.1214 8.10242 43.0015 8.13124L40.5984 8.69687C40.4421 8.56562 40.2859 8.43593 40.1249 8.30624L40.2109 5.84062C40.2163 5.71721 40.1898 5.5945 40.1339 5.48432C40.0781 5.37413 39.9948 5.2802 39.8921 5.21157C39.7894 5.14295 39.6708 5.10195 39.5476 5.09253C39.4244 5.08311 39.3009 5.10559 39.189 5.1578L36.9468 6.17968C36.7657 6.0796 36.5834 5.98168 36.3999 5.88593L36.0046 3.45468C35.9849 3.33323 35.9345 3.21884 35.8582 3.12235C35.7819 3.02585 35.6822 2.95047 35.5685 2.90335C35.4549 2.85623 35.3311 2.83894 35.2089 2.85312C35.0866 2.8673 34.9701 2.91248 34.8702 2.98437L32.8702 4.42187C32.6732 4.35923 32.4752 4.29933 32.2765 4.24218L31.414 1.93593C31.3714 1.82024 31.2999 1.7174 31.2063 1.63726C31.1126 1.55712 30.9999 1.50235 30.879 1.47821C30.7582 1.45406 30.6331 1.46135 30.5158 1.49936C30.3986 1.53737 30.293 1.60483 30.2093 1.6953L28.5265 3.50155C28.3234 3.47968 28.1202 3.4578 27.9156 3.44218L26.6156 1.34218C26.5509 1.23751 26.4605 1.15111 26.353 1.09119C26.2455 1.03127 26.1245 0.999817 26.0015 0.999817C25.8784 0.999817 25.7574 1.03127 25.65 1.09119C25.5425 1.15111 25.4521 1.23751 25.3874 1.34218L24.0874 3.44218C23.8843 3.4578 23.6796 3.47968 23.4765 3.50155L21.7937 1.69686C21.7095 1.60759 21.6039 1.54117 21.487 1.50381C21.3701 1.46645 21.2456 1.45938 21.1252 1.48327C21.0048 1.50717 20.8925 1.56123 20.7987 1.6404C20.7049 1.71957 20.6328 1.82126 20.589 1.93593L19.7265 4.24218C19.5265 4.29999 19.3281 4.36093 19.1327 4.42343L17.1327 2.98437C17.0332 2.91122 16.9166 2.86495 16.794 2.85001C16.6714 2.83507 16.547 2.85197 16.4329 2.89908C16.3187 2.94618 16.2186 3.02191 16.1422 3.11895C16.0659 3.216 16.0158 3.33108 15.9968 3.45312L15.5999 5.88593C15.4171 5.98124 15.2359 6.07968 15.0531 6.17968L12.8124 5.1578C12.7006 5.10566 12.5772 5.08319 12.4542 5.09254C12.3312 5.10188 12.2127 5.14274 12.11 5.21118C12.0073 5.27962 11.924 5.37333 11.8681 5.4833C11.8121 5.59326 11.7854 5.71578 11.7906 5.83905L11.8765 8.3078C11.7171 8.43593 11.5593 8.56562 11.4031 8.69843L8.99993 8.13124C8.88013 8.10346 8.75523 8.10662 8.63698 8.14041C8.51873 8.1742 8.41102 8.23751 8.32398 8.32439C8.23694 8.41127 8.17344 8.51887 8.13944 8.63706C8.10544 8.75524 8.10206 8.88014 8.12962 8.99999L8.69681 11.4047C8.56399 11.5609 8.43431 11.7172 8.30618 11.8766L5.83899 11.7906C5.71589 11.7861 5.59367 11.8132 5.48398 11.8692C5.37429 11.9253 5.28077 12.0085 5.21233 12.1109C5.14389 12.2134 5.1028 12.3316 5.09297 12.4544C5.08314 12.5772 5.1049 12.7005 5.15618 12.8125L6.17805 15.0562C6.07962 15.2359 5.98118 15.4172 5.88587 15.6031L3.45462 15.9969C3.33291 16.0164 3.21825 16.0668 3.12154 16.1432C3.02483 16.2197 2.9493 16.3196 2.90215 16.4335C2.85499 16.5473 2.83779 16.6714 2.85217 16.7938C2.86655 16.9162 2.91204 17.0329 2.98431 17.1328L4.42181 19.1312C4.35931 19.3281 4.29993 19.5266 4.24212 19.725L1.93587 20.5891C1.8206 20.6321 1.71825 20.704 1.63855 20.7977C1.55884 20.8915 1.50443 21.004 1.48048 21.1247C1.45653 21.2455 1.46383 21.3703 1.50169 21.4874C1.53955 21.6044 1.60671 21.7099 1.6968 21.7937L3.50149 23.4766C3.47805 23.6797 3.45774 23.8828 3.44056 24.0875L1.34212 25.3875C1.23745 25.4522 1.15105 25.5426 1.09113 25.65C1.03121 25.7575 0.999756 25.8785 0.999756 26.0016C0.999756 26.1246 1.03121 26.2456 1.09113 26.3531C1.15105 26.4606 1.23745 26.5509 1.34212 26.6156L3.44056 27.914C3.45774 28.1187 3.47805 28.3234 3.50149 28.5266L1.6968 30.2094C1.60671 30.2932 1.53955 30.3987 1.50169 30.5157C1.46383 30.6328 1.45653 30.7577 1.48048 30.8784C1.50443 30.9991 1.55884 31.1116 1.63855 31.2054C1.71825 31.2992 1.8206 31.371 1.93587 31.4141L4.24212 32.2765C4.29993 32.4765 4.36087 32.675 4.42337 32.8703L2.98431 34.8703C2.91242 34.9701 2.86724 35.0867 2.85306 35.2089C2.83888 35.3311 2.85617 35.4549 2.90329 35.5686C2.95041 35.6822 3.02579 35.7819 3.12228 35.8583C3.21878 35.9346 3.33317 35.985 3.45462 36.0047L5.88587 36.4C5.98118 36.5844 6.07806 36.7672 6.17962 36.9469L5.15618 39.1891C5.1049 39.3011 5.08314 39.4243 5.09297 39.5471C5.1028 39.6699 5.14389 39.7882 5.21233 39.8906C5.28077 39.993 5.37429 40.0762 5.48398 40.1323C5.59367 40.1884 5.71589 40.2154 5.83899 40.2109L8.30618 40.125C8.43431 40.2859 8.56399 40.4422 8.69681 40.5984L8.12962 43.0031C8.10054 43.1231 8.10286 43.2485 8.13636 43.3674C8.16985 43.4862 8.23338 43.5944 8.32083 43.6815C8.40829 43.7687 8.51671 43.8318 8.63565 43.8649C8.7546 43.8979 8.88005 43.8998 8.99993 43.8703L11.4031 43.3047C11.5593 43.4375 11.7171 43.5656 11.8765 43.6937L11.7906 46.1625C11.7859 46.2856 11.8129 46.4079 11.8689 46.5176C11.925 46.6273 12.0083 46.7208 12.1108 46.7892C12.2133 46.8575 12.3316 46.8984 12.4545 46.908C12.5773 46.9175 12.7006 46.8954 12.8124 46.8437L15.0546 45.8219C15.2343 45.9219 15.4171 46.0203 15.6015 46.1156L15.9968 48.5453C16.0157 48.6674 16.0657 48.7825 16.142 48.8797C16.2182 48.9769 16.3182 49.0528 16.4323 49.1002C16.5464 49.1476 16.6707 49.1648 16.7934 49.1503C16.916 49.1357 17.0329 49.0899 17.1327 49.0172L19.1312 47.5765C19.3281 47.639 19.5265 47.7016 19.7249 47.7578L20.5874 50.0641C20.6298 50.1799 20.7013 50.283 20.795 50.3632C20.8887 50.4435 21.0015 50.4982 21.1226 50.5222C21.2436 50.5463 21.3688 50.5387 21.486 50.5003C21.6033 50.462 21.7087 50.394 21.7921 50.3031L23.4765 48.4984C23.6796 48.5219 23.8827 48.5422 24.0874 48.5609L25.3874 50.6594C25.4524 50.7637 25.5429 50.8497 25.6503 50.9094C25.7577 50.969 25.8786 51.0003 26.0015 51.0003C26.1244 51.0003 26.2452 50.969 26.3527 50.9094C26.4601 50.8497 26.5506 50.7637 26.6156 50.6594L27.914 48.5594C28.1187 48.5422 28.3234 48.5219 28.5265 48.4984L30.2093 50.3031C30.2928 50.3937 30.3981 50.4612 30.5151 50.4994C30.6322 50.5376 30.7571 50.545 30.8779 50.521C30.9987 50.497 31.1113 50.4424 31.2049 50.3624C31.2985 50.2823 31.3699 50.1796 31.4124 50.0641L32.2765 47.7578C32.4749 47.7016 32.6734 47.639 32.8702 47.5765L34.8702 49.0172C34.9703 49.0886 35.0869 49.1334 35.2091 49.1473C35.3313 49.1611 35.455 49.1436 35.5685 49.0964C35.6821 49.0492 35.7817 48.9738 35.858 48.8774C35.9343 48.7809 35.9848 48.6667 36.0046 48.5453L36.4015 46.1141C36.5843 46.0203 36.7656 45.9203 36.9468 45.8219L39.189 46.8437C39.301 46.8955 39.4244 46.9176 39.5473 46.908C39.6703 46.8984 39.7888 46.8573 39.8913 46.7888C39.9939 46.7202 40.0771 46.6265 40.1331 46.5166C40.189 46.4066 40.2158 46.2842 40.2109 46.1609L40.1249 43.6922C40.2843 43.5672 40.4421 43.4375 40.5984 43.3047L43.0015 43.8703C43.1213 43.8995 43.2465 43.8974 43.3652 43.8642C43.484 43.8309 43.5921 43.7678 43.6794 43.6807C43.7666 43.5936 43.83 43.4855 43.8634 43.3669C43.8969 43.2482 43.8992 43.1229 43.8702 43.0031L43.3046 40.5984C43.4359 40.4422 43.5656 40.2859 43.6937 40.125L46.1624 40.2109C46.2857 40.2161 46.4082 40.1894 46.5182 40.1334C46.6281 40.0775 46.7219 39.9941 46.7903 39.8915C46.8587 39.7888 46.8996 39.6703 46.9089 39.5473C46.9183 39.4242 46.8958 39.3009 46.8437 39.1891L45.8218 36.9469C45.9218 36.7672 46.0187 36.5844 46.114 36.4L48.5452 36.0047C48.6671 35.9858 48.7821 35.9359 48.8792 35.8597C48.9762 35.7835 49.052 35.6836 49.0992 35.5697C49.1464 35.4557 49.1636 35.3315 49.1489 35.209C49.1343 35.0865 49.0883 34.9699 49.0156 34.8703L47.5781 32.8703C47.6402 32.6731 47.7001 32.4751 47.7577 32.2765L50.064 31.4141C50.1799 31.3717 50.2829 31.3002 50.3631 31.2065C50.4434 31.1127 50.4982 30.9999 50.5222 30.8789C50.5462 30.7579 50.5387 30.6327 50.5003 30.5155C50.4619 30.3982 50.394 30.2928 50.3031 30.2094L48.4984 28.5266C48.5202 28.3234 48.5406 28.1187 48.5593 27.914L50.6577 26.6156C50.7624 26.5509 50.8488 26.4606 50.9087 26.3531C50.9686 26.2456 51.0001 26.1246 51.0001 26.0016C51.0001 25.8785 50.9686 25.7575 50.9087 25.65C50.8488 25.5426 50.7624 25.4522 50.6577 25.3875ZM36.6093 42.8C36.2328 42.7085 35.9068 42.4736 35.7008 42.1454C35.4948 41.8172 35.425 41.4216 35.5062 41.0427C35.5875 40.6639 35.8133 40.3316 36.1358 40.1168C36.4582 39.9019 36.8518 39.8213 37.2327 39.8922C37.6107 39.9825 37.9383 40.2172 38.1455 40.546C38.3527 40.8748 38.4229 41.2716 38.3413 41.6515C38.2596 42.0315 38.0325 42.3644 37.7085 42.579C37.3846 42.7936 36.991 42.8729 36.6093 42.8ZM35.8952 37.9766C35.7214 37.9394 35.542 37.9368 35.3672 37.969C35.1925 38.0012 35.0257 38.0675 34.8766 38.1641C34.7274 38.2608 34.5987 38.3858 34.4979 38.5322C34.3971 38.6786 34.3261 38.8434 34.289 39.0172L33.5437 42.4953C31.1741 43.5699 28.6018 44.124 25.9999 44.1203C23.2499 44.1203 20.6406 43.5109 18.2984 42.4219L17.5531 38.9453C17.5161 38.7714 17.4452 38.6064 17.3445 38.4598C17.2438 38.3133 17.1151 38.1881 16.966 38.0913C16.8168 37.9945 16.65 37.928 16.4751 37.8958C16.3002 37.8635 16.1207 37.866 15.9468 37.9031L12.8765 38.5625C12.306 37.9754 11.7756 37.3505 11.289 36.6922H26.2281C26.3968 36.6922 26.5093 36.6609 26.5093 36.5078V31.2234C26.5093 31.0687 26.3968 31.039 26.2281 31.039H21.8593V27.6875H26.5843C27.0156 27.6875 28.8906 27.8109 29.4906 30.2078C29.6781 30.9437 30.0906 33.3422 30.3718 34.1094C30.6531 34.9703 31.7968 36.6906 33.0156 36.6906H40.4593C40.55 36.6898 40.6405 36.6809 40.7296 36.6641C40.214 37.3656 39.6468 38.0297 39.0374 38.6484L35.8968 37.975L35.8952 37.9766ZM15.2343 42.7266C14.8534 42.7974 14.4598 42.7168 14.1373 42.502C13.8149 42.2871 13.589 41.9549 13.5078 41.576C13.4266 41.1971 13.4964 40.8015 13.7024 40.4733C13.9084 40.1451 14.2343 39.9103 14.6109 39.8187C14.8019 39.7779 14.9991 39.7751 15.1912 39.8105C15.3833 39.8459 15.5666 39.9187 15.7306 40.0249C15.8945 40.1312 16.0359 40.2686 16.1468 40.4295C16.2576 40.5903 16.3357 40.7715 16.3765 40.9625C16.4173 41.1535 16.4201 41.3507 16.3848 41.5428C16.3494 41.735 16.2765 41.9182 16.1703 42.0822C16.0641 42.2461 15.9266 42.3876 15.7658 42.4984C15.6049 42.6092 15.4238 42.6873 15.2327 42.7281L15.2343 42.7266ZM9.56712 19.7469C9.64622 19.9251 9.68944 20.1171 9.69433 20.312C9.69921 20.5069 9.66565 20.7009 9.59557 20.8829C9.52549 21.0648 9.42027 21.2312 9.28589 21.3724C9.15152 21.5137 8.99064 21.6271 8.81243 21.7062C8.63422 21.7853 8.44218 21.8286 8.24726 21.8335C8.05235 21.8383 7.85839 21.8048 7.67644 21.7347C7.4945 21.6646 7.32814 21.5594 7.18686 21.425C7.04558 21.2906 6.93216 21.1298 6.85306 20.9516C6.6933 20.5916 6.68307 20.183 6.8246 19.8156C6.96613 19.4481 7.24784 19.1519 7.60774 18.9922C7.96765 18.8324 8.37628 18.8222 8.74373 18.9637C9.11118 19.1053 9.40737 19.387 9.56712 19.7469ZM7.82493 23.8766L11.0234 22.4547C11.3516 22.3084 11.6084 22.0378 11.7373 21.7024C11.8662 21.3669 11.8567 20.9941 11.7109 20.6656L11.0531 19.1766H13.6437V30.8547H8.41712C7.77189 28.5885 7.57185 26.2191 7.82493 23.8766ZM21.8609 22.7422V19.3H28.0296C28.3484 19.3 30.2796 19.6687 30.2796 21.1125C30.2796 22.3109 28.7984 22.7422 27.5796 22.7422H21.8609ZM44.2812 25.8406C44.2812 26.2969 44.264 26.7484 44.2296 27.1969H42.3546C42.1671 27.1969 42.0921 27.3219 42.0921 27.5047V28.3656C42.0921 30.3937 40.9484 30.8344 39.9468 30.9469C38.9937 31.0531 37.9343 30.5469 37.8046 29.9625C37.2421 26.7984 36.3046 26.1219 34.8234 24.9531C36.6609 23.7875 38.5734 22.0656 38.5734 19.7609C38.5734 17.2719 36.8671 15.7047 35.7046 14.9359C34.0734 13.8609 32.2671 13.6453 31.7796 13.6453H12.3827C15.0629 10.6476 18.6578 8.61863 22.6093 7.87343L24.8952 10.2719C25.4124 10.8125 26.2702 10.8344 26.8093 10.3156L29.3687 7.86874C31.976 8.35829 34.4456 9.40895 36.6065 10.9479C38.7673 12.4869 40.5677 14.4773 41.8827 16.7812L40.1312 20.7375C39.9858 21.066 39.9765 21.4387 40.1054 21.774C40.2342 22.1093 40.4907 22.3799 40.8187 22.5266L44.1921 24.0234C44.2499 24.6219 44.2812 25.2266 44.2812 25.8406ZM24.8968 5.8328C25.0378 5.69798 25.204 5.59228 25.3859 5.52174C25.5678 5.4512 25.7618 5.41721 25.9568 5.42171C26.1519 5.42621 26.3441 5.46911 26.5226 5.54796C26.701 5.62681 26.8622 5.74006 26.9968 5.88124C27.1316 6.02261 27.2373 6.18916 27.3077 6.37136C27.3782 6.55357 27.412 6.74786 27.4074 6.94316C27.4028 7.13845 27.3597 7.33092 27.2807 7.50958C27.2016 7.68823 27.0882 7.84956 26.9468 7.98437C26.8058 8.11904 26.6397 8.22459 26.4579 8.29498C26.276 8.36536 26.0821 8.3992 25.8872 8.39456C25.6923 8.38991 25.5002 8.34688 25.322 8.26791C25.1437 8.18895 24.9828 8.0756 24.8484 7.93437C24.5768 7.64893 24.4293 7.26748 24.4384 6.87358C24.4475 6.47967 24.6123 6.10542 24.8968 5.8328ZM42.2765 19.8187C42.4364 19.4588 42.7328 19.1772 43.1004 19.0358C43.468 18.8944 43.8767 18.9049 44.2366 19.0648C44.5966 19.2248 44.8782 19.5212 45.0196 19.8888C45.1609 20.2564 45.1505 20.6651 44.9906 21.025C44.9113 21.2032 44.7978 21.3641 44.6565 21.4984C44.5151 21.6327 44.3486 21.7379 44.1666 21.8079C43.9846 21.8779 43.7906 21.9114 43.5956 21.9064C43.4007 21.9014 43.2086 21.8581 43.0304 21.7789C42.8522 21.6997 42.6913 21.5862 42.557 21.4448C42.4227 21.3034 42.3175 21.137 42.2475 20.955C42.1775 20.7729 42.144 20.5789 42.149 20.384C42.154 20.189 42.1973 19.997 42.2765 19.8187Z" stroke="#D72323" stroke-width="1.5625"/>
</svg>
